<svg xmlns="http://www.w3.org/2000/svg" viewBox="0 0 110.32 110.32">
    <defs>
        <style>
            @keyframes rotate {
				0% {
					transform: rotate(360deg);
					transform-origin: 50% 50%;
				}
				100% {
					transform: rotate(0deg);
					transform-origin: 50% 50%;
				}
			}
			.tm_rotate {
				animation-name: rotate;
				animation-iteration-count: infinite;
				animation-timing-function: linear;
				animation-duration: 12s;
			}
            .cls-1 {
                fill: none;
                stroke: #4b8aff;
                stroke-miterlimit: 10;
                animation: circular 2s linear 0s infinite;
            }
        </style>
    </defs>
    <title>r2</title>
    <g id="Layer_2" data-name="Layer 2">
        <g id="Layer_1-2" class="tm_rotate" data-name="Layer 1">
            <path class="cls-1" d="M106.77,45.87H99.52A45.22,45.22,0,0,0,93.1,30.36l5.12-5.12a3.06,3.06,0,0,0,0-4.32L89.41,12.1a3.07,3.07,0,0,0-4.33,0L80,17.2a45.13,45.13,0,0,0-15.54-6.48V3.56A3.06,3.06,0,0,0,61.39.5H48.93a3.06,3.06,0,0,0-3.06,3.06v7.16a44.92,44.92,0,0,0-15.54,6.47L25.24,12.1a3.06,3.06,0,0,0-4.32,0L12.1,20.92a3.06,3.06,0,0,0,0,4.32l5.12,5.12a44.85,44.85,0,0,0-6.41,15.51H3.56A3.06,3.06,0,0,0,.5,48.93V61.39a3.06,3.06,0,0,0,3.06,3.06h7.3A44.89,44.89,0,0,0,17.3,79.88l-5.2,5.2a3.07,3.07,0,0,0,0,4.33l8.82,8.81a3.06,3.06,0,0,0,4.32,0L30.46,93a44.86,44.86,0,0,0,15.41,6.39v7.38a3.05,3.05,0,0,0,3.06,3H61.39a3.05,3.05,0,0,0,3.06-3V99.39A45.08,45.08,0,0,0,79.86,93l5.22,5.23a3.07,3.07,0,0,0,4.33,0l8.81-8.81a3.07,3.07,0,0,0,0-4.33L93,79.88a45,45,0,0,0,6.44-15.43h7.31a3.06,3.06,0,0,0,3-3.06V48.93A3.06,3.06,0,0,0,106.77,45.87Zm-68.39,26a23.73,23.73,0,1,1,33.56,0A23.73,23.73,0,0,1,38.38,71.83Z" />
            <path class="cls-1" d="M55.16,70.65a15.41,15.41,0,0,1-10.95-4.54" />
            <path class="cls-1" d="M44.21,44.2A15.49,15.49,0,0,1,70.54,57" />
        </g>
    </g>
</svg>