<svg xmlns="http://www.w3.org/2000/svg" viewBox="0 0 156.66 156.66">
    <defs>
        <style>
            @keyframes rotate {
				0% {
					transform: rotate(0deg);
					transform-origin: 50% 50%;
				}
				100% {
					transform: rotate(360deg);
					transform-origin: 50% 50%;
				}
			}
			.tm_rotate {
				animation-name: rotate;
				animation-iteration-count: infinite;
				animation-timing-function: linear;
				animation-duration: 12s;
			}
            .cls-1 {
                fill: none;
                stroke: #4b8aff;
                stroke-miterlimit: 10;
            }
        </style>
    </defs>
    <title>r1</title>
    <g id="Layer_2" data-name="Layer 2">
        <g id="Layer_1-2" class="tm_rotate" data-name="Layer 1">
            <path class="cls-1" d="M151.8,65.1H141.48A64,64,0,0,0,132.34,43l7.29-7.29a4.36,4.36,0,0,0,0-6.16L127.09,17a4.36,4.36,0,0,0-6.16,0l-7.25,7.25a64.35,64.35,0,0,0-22.13-9.22V4.85A4.35,4.35,0,0,0,87.2.5H69.45A4.35,4.35,0,0,0,65.1,4.85v10.2A64,64,0,0,0,43,24.27L35.73,17a4.36,4.36,0,0,0-6.16,0L17,29.57a4.36,4.36,0,0,0,0,6.16L24.31,43A64.17,64.17,0,0,0,15.17,65.1H4.85A4.35,4.35,0,0,0,.5,69.45V87.2a4.35,4.35,0,0,0,4.35,4.35h10.4a64.26,64.26,0,0,0,9.17,22l-7.4,7.4a4.36,4.36,0,0,0,0,6.16l12.55,12.54a4.36,4.36,0,0,0,6.16,0l7.43-7.43a64,64,0,0,0,21.94,9.11V151.8a4.36,4.36,0,0,0,4.35,4.36H87.2a4.35,4.35,0,0,0,4.35-4.36V141.3a64,64,0,0,0,21.94-9.11l7.44,7.44a4.36,4.36,0,0,0,6.16,0l12.54-12.54a4.36,4.36,0,0,0,0-6.16l-7.4-7.41a64.13,64.13,0,0,0,9.17-22h10.4a4.35,4.35,0,0,0,4.36-4.35V69.45A4.36,4.36,0,0,0,151.8,65.1Zm-97.36,37a33.79,33.79,0,1,1,47.78,0A33.77,33.77,0,0,1,54.44,102.05ZM62.06,61.9a23,23,0,0,1,32.54,0" />
        </g>
    </g>
</svg>