<svg xmlns="http://www.w3.org/2000/svg" viewBox="0 0 969.53 408.26">
    <defs>
        <style>
            @keyframes shaking {
				0% {
					transform: translateX(-30px);
				}
                50% {
                    transform: translateX(30px);
                }
				100% {
					transform: translateX(-30px);
				}
			}
            .shaking-clock {
                animation-name: shaking;
				animation-iteration-count: infinite;
				animation-timing-function: linear;
				animation-duration: 4s;
            }

            .cls-1 {
                fill: #cee9ff;
            }
            
            .cls-10,
            .cls-2,
            .cls-4,
            .cls-8 {
                fill: none;
            }
            
            .cls-10,
            .cls-2,
            .cls-4,
            .cls-5,
            .cls-8 {
                stroke: #4b8aff;
            }
            
            .cls-10,
            .cls-2,
            .cls-5,
            .cls-7,
            .cls-8 {
                stroke-miterlimit: 10;
            }
            
            .cls-3,
            .cls-7 {
                fill: #4b8aff;
            }
            
            .cls-4,
            .cls-9 {
                stroke-linecap: round;
                stroke-linejoin: round;
            }
            
            .cls-5,
            .cls-6,
            .cls-9 {
                fill: #fff;
            }
            
            .cls-7 {
                stroke: #fff;
            }
            
            .cls-8 {
                stroke-width: 0.6px;
            }
            
            .cls-9 {
                stroke: #89c9ef;
            }
            
            .cls-10 {
                stroke-width: 0.69px;
            }
        </style>
    </defs>
    <title> coming soon 5_1</title>
    <g id="Layer_2" data-name="Layer 2">
        <g id="Layer_1-2" data-name="Layer 1">
            <path class="cls-1" d="M321.69,295a150.43,150.43,0,0,1,18.95,61.36,155.62,155.62,0,0,1-.79,33c-.79,6.24,2.87,18.48-7.14,18.69-4.53.09-8.61-2.53-12.91-3.94-9.63-3.17-20-.24-30.11.88-8,.9-16.15.62-24.22.35-10.11-.35-20.31-.71-30.13-3.16s-19.34-7.21-25.8-15c-4.49-5.42-7.38-12.76-5.53-19.56a22.8,22.8,0,0,1,5.82-9.49,39.5,39.5,0,0,1,13.61-9.25c7.6-3.09,17.48-5,19.85-12.88,2-6.55-2.76-13-6.23-18.87s-5.23-14.8.53-18.49c4.5-2.88,10.85-.47,15.54-3,6.34-3.45,5.35-12.68,3.74-19.72q-3-13.12-4.73-26.5c-.92-7.19-.48-16.36,6.19-19.2,6.89-2.94,14,3.69,17.79,10.18a74.41,74.41,0,0,1,8.16,20.73c1.27,5.53,2,11.38,5.06,16.15,5.64,8.72,11.44,3.57,18.92,5.16C314.45,283.77,318.56,289.53,321.69,295Z" />
            <path class="cls-2" d="M335.53,390.24c-.79-2.14-17.35-5.91-20.07-6.93q-9.93-3.75-19.65-8c-11.55-5.09-25.16-9.6-35.14-17.29-1.79-1.38-3.67-3.16-3.67-5.43s1.83-4,3.88-4.58a11.48,11.48,0,0,1,6.35.35,3.64,3.64,0,0,0,2.38.17,2.36,2.36,0,0,0,1-3.08,6.24,6.24,0,0,0-2.45-2.57c-7.8-5.37-17.06-8.2-25.27-12.91-7.31-4.19-15.43-11.6-16.92-20.41-1.44-8.52,7.14-14.26,7.82-22.75.52-6.52-3.44-12.42-6.57-18.16s-5.51-13-2-18.58c4.23-6.72,14.81-6.29,21.11-1.44s9.57,12.52,13.28,19.55c3,5.6,7.84,14.38,12.95,18.26,2.72,2.07,6.74,2.84,9.55.89,1.76-1.23,2.75-3.28,4.22-4.86,5.4-5.79,16-2.95,20.26,3.71s3.75,15.32,2,23c-.76,3.33-1.72,6.77-1,10.12s3.74,6.52,7.12,6c2.1-.35,3.86-2,6-2.14,2.52-.15,4.71,2,5.48,4.43s.49,5,.27,7.53C324.68,354.86,328.76,372,335.53,390.24Z" />
            <path class="cls-3" d="M235.15,256.76A228.42,228.42,0,0,0,261,311.81c.14.7.28,1.4.41,2.11a.83.83,0,0,0,1.31.43c.61.92,1.23,1.85,1.87,2.77-9.54-6.78-19.08-13-27-21.94-.48-.55-1.34.18-.87.73,8.36,9.74,18.11,19.77,30.22,24.7h.05c13,18.24,29.14,36.48,48,48.64.8.53,2-.61,1.18-1.32-8.67-7.87-17.17-15.59-25.23-23.74a112.36,112.36,0,0,0-10.88-48.5c-.19-.4-.9-.2-.76.25a274.28,274.28,0,0,1,10,46.51,216.25,216.25,0,0,1-20.44-24c-2.12-2.94-4.15-5.94-6.15-9-1-13.42-6.23-26.67-12.85-38.17-.27-.47-1-.13-.78.37,5.18,10.66,8.11,21.6,10.49,32.91a244,244,0,0,1-23.22-48.28C236.14,255.65,234.92,256.05,235.15,256.76Z" />
            <path class="cls-4" d="M313.23,290.21c-17.91-30.5-28.24-65.65-30.54-101-.59-9.17-.64-18.62,2.48-27.27" />
            <path class="cls-4" d="M281.31,183.51q2.85-8.1,5.71-16.22c1.61-4.56,3.2-9.71,1.11-14.08a1.64,1.64,0,0,0-.81-.92c-.58-.21-1.19.21-1.63.64-3.54,3.45-4.81,8.68-4.69,13.61s-.21,12.21.7,17.06" />
            <path class="cls-4" d="M283.07,206.09a41.1,41.1,0,0,1-17-18c-.53-1.1-1-2.45-.35-3.48.78-1.25,2.67-1.17,4-.54,2.29,1.08,3.9,3.19,5.33,5.28a102.93,102.93,0,0,1,8.54,15" />
            <path class="cls-4" d="M287.65,229.33a43.06,43.06,0,0,1-17.79-18.86c-.55-1.15-1-2.56-.36-3.65.82-1.31,2.8-1.23,4.2-.57,2.4,1.13,4.08,3.35,5.58,5.53a108.32,108.32,0,0,1,8.94,15.71" />
            <path class="cls-4" d="M296.59,255.84a43,43,0,0,1-22.86-12.22c-.89-.92-1.8-2.1-1.51-3.34.36-1.51,2.27-2.05,3.8-1.87,2.64.3,4.93,1.87,7.05,3.46a108.54,108.54,0,0,1,13.48,12" />
            <path class="cls-4" d="M283.23,192.47a36.48,36.48,0,0,0,11-19.07c.24-1.06.37-2.32-.41-3.08-.93-.93-2.55-.47-3.58.35-1.76,1.4-2.72,3.56-3.53,5.66a91.82,91.82,0,0,0-4.33,14.73" />
            <path class="cls-4" d="M286.75,215.19a43.65,43.65,0,0,0,13.16-22.77c.27-1.26.43-2.77-.49-3.68-1.12-1.1-3.05-.56-4.28.42-2.1,1.67-3.24,4.25-4.22,6.76a110.52,110.52,0,0,0-5.16,17.59" />
            <path class="cls-4" d="M293,240a43.66,43.66,0,0,0,13.16-22.76c.27-1.27.43-2.77-.49-3.69-1.12-1.1-3.05-.56-4.28.42-2.1,1.68-3.24,4.25-4.22,6.76A111.14,111.14,0,0,0,292,238.31" />
            <path class="cls-4" d="M301.86,266.1A43.67,43.67,0,0,0,315,243.33c.28-1.26.44-2.77-.48-3.68-1.12-1.11-3-.56-4.28.42-2.11,1.67-3.25,4.25-4.22,6.75a108.89,108.89,0,0,0-5.16,17.6" />
            <path class="cls-1" d="M675.41,295a138.33,138.33,0,0,0-20.14,94.36c.88,6.24-3.18,18.48,7.93,18.69,5,.09,9.54-2.53,14.31-3.94,10.68-3.17,22.22-.24,33.4.88,8.9.9,17.9.62,26.86.35,11.21-.35,22.52-.7,33.4-3.16s21.46-7.21,28.62-15c5-5.42,8.19-12.76,6.13-19.56a22.4,22.4,0,0,0-6.45-9.49,44.2,44.2,0,0,0-15.09-9.25c-8.43-3.09-19.38-5-22-12.88-2.2-6.55,3-13,6.91-18.87s5.79-14.8-.59-18.49c-5-2.88-12-.47-17.24-3-7-3.45-5.93-12.68-4.14-19.72a250.68,250.68,0,0,0,5.23-26.5c1-7.19.54-16.36-6.85-19.2-7.65-2.94-15.57,3.69-19.73,10.18a70.49,70.49,0,0,0-9.06,20.73c-1.41,5.53-2.19,11.38-5.61,16.15-6.25,8.72-12.68,3.57-21,5.16C683.45,283.77,678.89,289.53,675.41,295Z" />
            <path class="cls-2" d="M669.31,372.1c.82-2.19,17.78-6.05,20.56-7.1q10.18-3.84,20.14-8.23c11.83-5.21,25.77-9.83,36-17.71,1.84-1.42,3.77-3.24,3.76-5.56s-1.87-4.07-4-4.69a11.65,11.65,0,0,0-6.5.36,3.82,3.82,0,0,1-2.44.17,2.43,2.43,0,0,1-1-3.16,6.41,6.41,0,0,1,2.51-2.63c8-5.5,17.48-8.4,25.89-13.22,7.49-4.29,15.81-11.88,17.33-20.91,1.47-8.74-7.31-14.62-8-23.31-.53-6.68,3.53-12.73,6.74-18.61s5.63-13.35,2.07-19C778,221.58,767.19,222,760.74,227s-9.8,12.82-13.61,20c-3,5.74-8,14.73-13.27,18.71-2.79,2.12-6.9,2.91-9.78.91-1.81-1.26-2.81-3.36-4.32-5-5.53-5.94-16.38-3-20.75,3.8s-3.85,15.68-2,23.59c.78,3.42,1.77,6.95,1.06,10.38s-3.83,6.68-7.29,6.12c-2.16-.35-4-2.07-6.14-2.19-2.59-.16-4.82,2.07-5.62,4.53s-.5,5.14-.28,7.72C680.43,335.86,676.25,353.42,669.31,372.1Z" />
            <path class="cls-3" d="M772.15,235.35a234.37,234.37,0,0,1-26.53,56.4l-.42,2.17a.83.83,0,0,1-1.33.43c-.64.95-1.27,1.9-1.92,2.84,9.77-6.94,19.54-13.3,27.64-22.48.49-.56,1.37.19.88.75-8.55,10-18.54,20.25-31,25.31h-.06c-13.35,18.68-29.84,37.37-49.18,49.83-.83.53-2-.63-1.22-1.35,8.88-8.07,17.59-16,25.85-24.32a115.06,115.06,0,0,1,11.15-49.69c.19-.41.92-.21.78.25a280.72,280.72,0,0,0-10.21,47.65,220,220,0,0,0,20.94-24.55c2.17-3,4.26-6.08,6.3-9.18,1-13.76,6.39-27.33,13.17-39.11.28-.48,1-.14.79.38-5.3,10.92-8.3,22.13-10.74,33.72a250.7,250.7,0,0,0,23.79-49.46C771.13,234.22,772.39,234.62,772.15,235.35Z" />
            <path class="cls-3" d="M696.81,380.41c35.39-2,70.49-14,100.8-32.16,7.93-4.75,15.81-10.09,21.16-17.78.34-.49-.44-.91-.79-.46-5.26,6.86-12.18,11.94-19.5,16.41a232.21,232.21,0,0,1-22.59,12.12,230.64,230.64,0,0,1-49.43,16.69,249.33,249.33,0,0,1-29.65,4.38c-.5.05-.52.83,0,.8Z" />
            <path class="cls-4" d="M803.1,344.81l11.2-13.05c3.16-3.67,6.83-7.62,11.65-8a1.68,1.68,0,0,1,1.21.25,1.71,1.71,0,0,1,.25,1.73c-1.22,4.79-5.11,8.5-9.45,10.86s-10.47,6.28-15.13,7.91" />
            <path class="cls-4" d="M783.18,357.07a41.06,41.06,0,0,0,24.48,3.75c1.21-.19,2.58-.57,3.07-1.69.59-1.35-.56-2.87-1.83-3.61-2.19-1.27-4.85-1.39-7.38-1.39a104.39,104.39,0,0,0-17.2,1.49" />
            <path class="cls-4" d="M761.45,366.49a43,43,0,0,0,25.63,3.93c1.26-.2,2.7-.59,3.21-1.77.61-1.42-.58-3-1.92-3.78-2.29-1.33-5.07-1.45-7.72-1.45a108.77,108.77,0,0,0-18,1.56" />
            <path class="cls-4" d="M734.55,374.19a43,43,0,0,0,23.05,11.88c1.26.21,2.75.29,3.6-.66,1-1.15.41-3-.62-4.19-1.74-2-4.34-3-6.85-3.83a107.36,107.36,0,0,0-17.57-4.25" />
            <path class="cls-4" d="M793,348.68a36.57,36.57,0,0,1,9.44-19.9c.74-.79,1.7-1.61,2.77-1.41,1.29.24,1.83,1.83,1.74,3.15-.15,2.24-1.38,4.25-2.65,6.12a91.42,91.42,0,0,1-9.67,11.92" />
            <path class="cls-4" d="M773.6,359.21a43.61,43.61,0,0,1,11.27-23.76c.88-.95,2-1.93,3.31-1.69,1.54.29,2.19,2.19,2.08,3.76-.18,2.68-1.65,5.08-3.17,7.31a110.24,110.24,0,0,1-11.54,14.23" />
            <path class="cls-4" d="M749.67,368.19a43.59,43.59,0,0,1,11.26-23.76c.89-.95,2-1.93,3.31-1.69,1.54.29,2.19,2.19,2.09,3.76-.19,2.68-1.66,5.08-3.17,7.31a109.57,109.57,0,0,1-11.55,14.24" />
            <path class="cls-4" d="M723.12,375.68a43.61,43.61,0,0,1,11.27-23.76c.88-.94,2-1.93,3.31-1.69,1.54.29,2.19,2.2,2.08,3.76-.18,2.68-1.66,5.09-3.17,7.31a109.66,109.66,0,0,1-11.54,14.24" />
            <path class="cls-5" d="M519.77,119.91H688.48a13.87,13.87,0,0,1,13.88,13.88V387.53H310.81V132.26a12.35,12.35,0,0,1,12.35-12.35H519.77Z" />
            <path class="cls-6" d="M282.66,405.61a18.1,18.1,0,0,1-18.08-18.08V387h484v.5a18.1,18.1,0,0,1-18.08,18.08Z" />
            <path class="cls-3" d="M748.09,387.53a17.58,17.58,0,0,1-17.58,17.58H282.66a17.58,17.58,0,0,1-17.58-17.58h483m1-1h-485v1a18.61,18.61,0,0,0,18.58,18.58H730.51a18.6,18.6,0,0,0,18.58-18.58v-1Z" />
            <path class="cls-3" d="M454.91,387.53H558.26a0,0,0,0,1,0,0V393A5.27,5.27,0,0,1,553,398.3H460.18a5.27,5.27,0,0,1-5.27-5.27v-5.5A0,0,0,0,1,454.91,387.53Z" />
            <path class="cls-7" d="M689.87,135.61V359.53a4.85,4.85,0,0,1-5,4.74H328.27a4.85,4.85,0,0,1-5-4.74V135.61a4.86,4.86,0,0,1,5-4.74H684.9A4.86,4.86,0,0,1,689.87,135.61Z" />
            <path class="cls-6" d="M323.73,147.24V135.86a4.56,4.56,0,0,1,4.54-4.56H684.9a4.56,4.56,0,0,1,4.54,4.56v11.38Z" />
            <path class="cls-3" d="M684.9,131.73a4.13,4.13,0,0,1,4.11,4.13v10.95H324.16V135.86a4.13,4.13,0,0,1,4.11-4.13H684.9m0-.86H328.27a5,5,0,0,0-5,5v11.81H689.87V135.86a5,5,0,0,0-5-5Z" />
            <rect class="cls-3" x="52.66" y="404.7" width="861.86" height="3.56" />
            <rect class="cls-8" x="106.03" y="137.87" width="30.59" height="17.54" />
            <rect class="cls-8" x="226.72" y="21.2" width="54.28" height="19.11" />
            <rect class="cls-8" x="256" y="40.26" width="50.77" height="19.11" />
            <rect class="cls-8" x="256" y="2.07" width="50.77" height="19.11" />
            <rect class="cls-8" x="827.93" y="70.37" width="45.33" height="17.06" />
            <rect class="cls-8" x="808.3" y="53.3" width="45.33" height="17.06" />
            <rect class="cls-8" x="853.52" y="53.3" width="45.33" height="17.06" />
            <rect class="cls-8" x="828.28" y="215.13" width="37.54" height="18.94" />
            <rect class="cls-8" x="136.36" y="164.53" width="51.8" height="17.54" />
            <path class="cls-3" d="M336.94,139.36a2.81,2.81,0,1,1-2.81-2.81A2.81,2.81,0,0,1,336.94,139.36Z" />
            <path class="cls-3" d="M349.24,139.36a2.81,2.81,0,1,1-2.8-2.81A2.8,2.8,0,0,1,349.24,139.36Z" />
            <path class="cls-3" d="M361.55,139.36a2.81,2.81,0,1,1-2.8-2.81A2.81,2.81,0,0,1,361.55,139.36Z" />
            <path class="cls-2" d="M188.9,395H133.37l.44-1.17,4.09-11.16,4.48-12.26,4.74-12.91,4.48-12.26,5.55-15.18a4.24,4.24,0,0,1,8,0l5.55,15.18,4.48,12.26,4.76,13,4.48,12.24,4.07,11.11Z" />
            <rect class="cls-2" x="127" y="393.83" width="68.28" height="9.99" rx="3.26" ry="3.26" />
            <polygon class="cls-3" points="175.15 357.49 147.12 357.49 151.6 345.23 170.67 345.23 175.15 357.49" />
            <polygon class="cls-3" points="184.39 382.71 137.9 382.66 142.38 370.39 179.91 370.47 184.39 382.71" />
            <path class="cls-2" d="M876.56,395H821l.44-1.17,4.09-11.16L830,370.4l4.74-12.91,4.48-12.26,5.55-15.18a4.24,4.24,0,0,1,8,0l5.55,15.18,4.48,12.26,4.76,13,4.48,12.24,4.07,11.11Z" />
            <rect class="cls-2" x="814.66" y="393.83" width="68.28" height="9.99" rx="3.26" ry="3.26" />
            <polygon class="cls-3" points="862.81 357.49 834.78 357.49 839.26 345.23 858.33 345.23 862.81 357.49" />
            <polygon class="cls-3" points="872.05 382.71 825.57 382.66 830.04 370.39 867.57 370.47 872.05 382.71" />
            <line class="cls-9" x1="363.29" y1="188.65" x2="446.04" y2="188.65" />
            <line class="cls-9" x1="389.78" y1="178.34" x2="472.53" y2="178.34" />
            <line class="cls-10" x1="886.78" y1="297.25" x2="969.53" y2="297.25" />
            <line class="cls-9" x1="587.28" y1="343.39" x2="639.06" y2="343.39" />
            <line class="cls-9" x1="603.86" y1="333.09" x2="655.64" y2="333.09" />
            <line class="cls-10" x1="101.82" y1="259.54" x2="153.6" y2="259.54" />
            <line class="cls-10" x1="653.6" y1="0.35" x2="705.38" y2="0.35" />
            <line class="cls-9" x1="337.7" y1="343.74" x2="369.45" y2="343.74" />
            <line class="cls-9" x1="347.86" y1="333.43" x2="379.61" y2="333.43" />
            <rect class="cls-8" x="19.93" y="322.3" width="45.33" height="17.06" />
            <rect class="cls-8" x="0.3" y="339.37" width="45.33" height="17.06" />
            <rect class="cls-8" x="45.52" y="339.37" width="45.33" height="17.06" />
            <g class="shaking-clock">
                <path class="cls-6" d="M410.92,251.21a15.87,15.87,0,0,1-6.56-6.55,22.71,22.71,0,0,1-.17-19.73,16,16,0,0,1,6.45-6.63,20.18,20.18,0,0,1,9.94-2.43,22.59,22.59,0,0,1,6.95,1,16,16,0,0,1,5.51,2.87l-2.91,6.78a16.06,16.06,0,0,0-9.28-3.09,8.47,8.47,0,0,0-6.82,2.87q-2.34,2.82-2.29,8.39t2.44,8.38a8.4,8.4,0,0,0,6.86,2.77,15.93,15.93,0,0,0,9.23-3.25l3,6.74a16.09,16.09,0,0,1-5.46,3,22.49,22.49,0,0,1-6.94,1.15A20.25,20.25,0,0,1,410.92,251.21Z" />
                <path class="cls-6" d="M445.18,251a15.83,15.83,0,0,1-6.42-6.5,23.31,23.31,0,0,1-.17-19.92A15.71,15.71,0,0,1,444.9,218a21.9,21.9,0,0,1,19.5-.16,15.42,15.42,0,0,1,6.4,6.47,23.38,23.38,0,0,1,.15,19.91,15.74,15.74,0,0,1-6.32,6.61,21.58,21.58,0,0,1-19.45.17Zm16.19-8.1c1.54-2,2.3-4.83,2.26-8.57s-.84-6.58-2.43-8.51a8.7,8.7,0,0,0-13,.09q-2.31,2.89-2.27,8.57c0,3.78.84,6.63,2.42,8.56a8.7,8.7,0,0,0,13-.14Z" />
                <path class="cls-6" d="M508.25,215.59l7.38-.06.31,36.66-8.32.07L507.46,233l-7,13.22-6.14,0-7.12-12.78.1,18.92-8.32.07-.31-36.65,7.54-.07,11.2,20.76Z" />
                <path class="cls-6" d="M522.7,252.13l-.31-36.66,9.57-.08.31,36.66Z" />
                <path class="cls-6" d="M562.38,215.13l8.94-.07.31,36.66-7.07.06L547.64,231l.18,21-8.89.07-.32-36.65,7-.06,17,20.81Z" />
                <path class="cls-6" d="M610.56,230.69l.15,18.35a28,28,0,0,1-6.48,2.14,37.39,37.39,0,0,1-7.43.79,22.47,22.47,0,0,1-10.39-2.17,15.83,15.83,0,0,1-6.79-6.44,20.55,20.55,0,0,1-2.42-10.05,20.32,20.32,0,0,1,2.25-9.95,16.09,16.09,0,0,1,6.57-6.61,21.08,21.08,0,0,1,10.05-2.37,26.19,26.19,0,0,1,7.52,1,15.77,15.77,0,0,1,5.72,2.81L606.4,225a19.84,19.84,0,0,0-4.91-2.35,16.59,16.59,0,0,0-5-.68c-3.3,0-5.74,1-7.34,2.82s-2.38,4.68-2.34,8.49.89,6.81,2.59,8.69,4.28,2.8,7.75,2.77a24,24,0,0,0,4.93-.56l-.06-6.81-6.44.05-.06-6.55Z" />
                <path class="cls-6" d="M437.35,311.44a19.92,19.92,0,0,1-6.52-2.86l2.9-6.78a22.75,22.75,0,0,0,5.69,2.5,21.57,21.57,0,0,0,6.1.83,10.56,10.56,0,0,0,4.75-.9,2.65,2.65,0,0,0,1.61-2.43,2.62,2.62,0,0,0-1.5-2.28,21.08,21.08,0,0,0-5.66-1.72,32.49,32.49,0,0,1-8.08-2.53,9.58,9.58,0,0,1-4.11-3.5,9.86,9.86,0,0,1-1.21-5,10.19,10.19,0,0,1,1.84-6.07,12.64,12.64,0,0,1,5.33-4.26,19.28,19.28,0,0,1,7.91-1.6,26.33,26.33,0,0,1,7.68,1.05,15.8,15.8,0,0,1,5.82,2.84l-2.85,6.78a18.26,18.26,0,0,0-10.53-3.34,7.85,7.85,0,0,0-4.26,1.05,3,3,0,0,0-1.59,2.69,2.31,2.31,0,0,0,.59,1.61,5.79,5.79,0,0,0,2.14,1.2,31.23,31.23,0,0,0,4.64,1.18,31.24,31.24,0,0,1,7.87,2.56A10,10,0,0,1,460,296a9.38,9.38,0,0,1,1.24,4.82,9.9,9.9,0,0,1-4.09,8.49q-4.14,3.07-11.68,3.14A30.7,30.7,0,0,1,437.35,311.44Z" />
                <path class="cls-6" d="M474.39,309.9a15.79,15.79,0,0,1-6.43-6.5,23.24,23.24,0,0,1-.16-19.91,15.59,15.59,0,0,1,6.31-6.58,21.94,21.94,0,0,1,19.5-.17,15.53,15.53,0,0,1,6.4,6.47,21.23,21.23,0,0,1,2.29,9.94,20.92,20.92,0,0,1-2.15,10,15.84,15.84,0,0,1-6.31,6.61,21.62,21.62,0,0,1-19.45.16Zm16.18-8.09c1.55-2,2.3-4.83,2.27-8.58s-.85-6.58-2.44-8.5a8.7,8.7,0,0,0-13,.08c-1.55,1.94-2.3,4.8-2.27,8.57s.84,6.64,2.41,8.56a8.69,8.69,0,0,0,13-.13Z" />
                <path class="cls-6" d="M515.78,309.55a15.79,15.79,0,0,1-6.43-6.5,23.24,23.24,0,0,1-.16-19.91,15.59,15.59,0,0,1,6.31-6.58,21.94,21.94,0,0,1,19.5-.17,15.48,15.48,0,0,1,6.4,6.47,21.35,21.35,0,0,1,2.29,9.94,21,21,0,0,1-2.15,10,15.78,15.78,0,0,1-6.31,6.61,21.62,21.62,0,0,1-19.45.16ZM532,301.46c1.55-2,2.3-4.83,2.27-8.58s-.85-6.58-2.44-8.5a8.7,8.7,0,0,0-13,.08c-1.55,1.94-2.3,4.79-2.27,8.57s.84,6.63,2.41,8.56a8.69,8.69,0,0,0,13-.13Z" />
                <path class="cls-6" d="M573,274.25l8.94-.08.31,36.66-7.07.06-16.92-20.81.18,20.95-8.89.08-.32-36.66,7-.06,17,20.81Z" />
            </g>
        </g>
    </g>
</svg>